<svg xmlns="http://www.w3.org/2000/svg" width="1400" height="900" viewBox="0 0 1400 900">
<defs><linearGradient id="bg" x1="0" y1="0" x2="1" y2="1"><stop stop-color="#eef4f1"/><stop offset="1" stop-color="#d9e9e0"/></linearGradient><filter id="sh"><feDropShadow dx="0" dy="18" stdDeviation="15" flood-opacity=".25"/></filter></defs>
<rect width="1400" height="900" fill="url(#bg)"/>
<g filter="url(#sh)" transform="translate(145 165)">
 <rect x="0" y="80" width="1110" height="460" rx="30" fill="#f8faf9" stroke="#b8c9bf" stroke-width="8"/>
 <rect x="70" y="160" width="970" height="230" rx="18" fill="#c9d4ce"/>
 <rect x="125" y="205" width="860" height="140" rx="12" fill="#dcc19b"/>
 <rect x="280" y="0" width="550" height="150" rx="20" fill="#087943"/>
 <rect x="520" y="135" width="70" height="185" rx="16" fill="#24332b"/>
 <circle cx="555" cy="324" r="42" fill="#f5b900"/>
 <g fill="#7f8e85"><circle cx="280" cy="275" r="12"/><circle cx="430" cy="275" r="12"/><circle cx="680" cy="275" r="12"/><circle cx="830" cy="275" r="12"/></g>
 <rect x="870" y="20" width="180" height="125" rx="16" fill="#1d2c24"/><rect x="894" y="42" width="132" height="70" rx="6" fill="#88d9ab"/>
</g>
<text x="85" y="100" font-family="Arial" font-size="38" font-weight="700" fill="#087943">CNC / BAZIS TESHISh MARKAZI</text>
</svg>