<svg xmlns="http://www.w3.org/2000/svg" width="1400" height="900" viewBox="0 0 1400 900">
<defs><linearGradient id="bg" x1="0" y1="0" x2="1" y2="1"><stop stop-color="#eff7f2"/><stop offset="1" stop-color="#dbece2"/></linearGradient><filter id="sh"><feDropShadow dx="0" dy="20" stdDeviation="18" flood-opacity=".25"/></filter></defs>
<rect width="1400" height="900" fill="url(#bg)"/>
<g filter="url(#sh)" transform="translate(210 105)">
 <rect x="0" y="0" width="980" height="610" rx="28" fill="#17251d"/>
 <rect x="38" y="38" width="904" height="520" rx="14" fill="#eef2ef"/>
 <rect x="100" y="100" width="270" height="360" fill="#d6c2a5"/><rect x="390" y="100" width="420" height="360" fill="#e7dfd3"/>
 <g stroke="#087943" stroke-width="8" fill="none"><rect x="450" y="150" width="290" height="235"/><line x1="450" y1="250" x2="740" y2="250"/><line x1="545" y1="150" x2="545" y2="385"/><line x1="645" y1="150" x2="645" y2="385"/></g>
 <rect x="390" y="475" width="420" height="22" rx="11" fill="#087943"/>
 <rect x="405" y="610" width="170" height="30" rx="10" fill="#17251d"/><rect x="330" y="640" width="320" height="32" rx="12" fill="#24352b"/>
</g>
<text x="88" y="92" font-family="Arial" font-size="38" font-weight="700" fill="#087943">BAZIS / 3D MEBEL LOYIHALASH</text>
</svg>